Generated by LeviEiko.com
<!-- Thick width is 50pts, Thin width difference is +/-10pts -->
<svg 
  version="1.1" 
  width="100%" 
  height="100%" 
  viewBox="0 0 750 400"
  >
  <title>Eiko</title>

  <style>
    path {
      stroke: black;
      fill: white;
    }
  </style>

  <!-- Eiko -->
  <path 
    class="E" 
    d="
      M0 0 H50 V400 H0 V0 Z 
      M75 0 H200 V50 H75 Z
      M75 175 H160 V225 H75 Z
      M75 350 H200 V400 H75 Z
    "/>
  <path 
    class="i"
    d="
      M250,400 L250,100 300,100 300,400  Z 
      M250,50 L250,0 300,0 300,50 Z
    " />
  <path 
    class="k" 
    d="
      M350,0 L350,400 400,400 400,0 Z 
      M425,300 L425,225 L475,100 525,100 475,225 535,400 485,400 445,283 425,325 Z
    "/>
  <path 
    class="o"
    d="
      M650,100 Q575,100 575,175 L575,325 Q575,400 650,400 L650,350 Q625,350 625,325 L625,175 Q625,150 650,150 Z
      M675,100 Q750,100 750,175 L750,325 Q750,400 675,400 L675,350 Q700,350 700,325 L700,175 Q700,150 675,150 Z
    " />
</svg>
