<!-- Generated by LeviEiko.com -->
<!-- Thick width is 50pts, Thin width difference is +/-10pts -->
<svg 
  version="1.1" 
  width="100%" 
  height="100%" 
  viewBox="0 0 800 400"
  >


<style>
path {
stroke: black;
}
</style>
  <rect fill="transparent" stroke-width="0" width="800" height="400" x="0" y="0" />
  <!-- L -->
  <path class="L" d="
    M0 0 H50 V400 H0 V0 Z 
    M75 350 H200 V400 H75 Z
  "/>
  <path 
  class="e"
  d="
    M300,150 Q225,150 225,225 L225,325 Q225,400 300,400 L300,400 300,350 Q275,350 275,325 L275,225 Q275,200 300,200 Z 
    M325,150 Q400,150 400,225 L400,225 400,275 290,275 290,240 350,240 350,225 Q350,200 325,200 Z 
    M325,400 Q400,400 400,325 L400,300 350,300 350,325 Q350,350 325,350 Z
  " />
</svg>
