<!-- Generated by LeviEiko.com -->
<svg 
  version="1.1" 
  width="100%" 
  height="100%" 
  viewBox="0 0 800 400"
  >



  <defs>
      <linearGradient id="skyGradient" x1="100%" y1="100%">
      <stop offset="0%" stop-color="lightblue" stop-opacity=".5">
        <animate attributeName="stop-color" values="lightblue;blue;red;red;black;red;red;purple;lightblue" dur="14s" repeatCount="indefinite" />
      </stop>
      <stop offset="100%" stop-color="lightblue" stop-opacity=".5">
        <animate attributeName="stop-color" values="lightblue;orange;purple;purple;black;purple;purple;blue;lightblue" dur="14s" repeatCount="indefinite" />
        <animate attributeName="offset" values=".95;.80;.60;.40;.20;0;.20;.40;.60;.80;.95" dur="14s" repeatCount="indefinite" />    
      </stop>
    </linearGradient>
  </defs>

  <rect fill="transparent" stroke-width="0" width="800" height="400" x="0" y="0" />
  <path 
    stroke="black"
    d="M0 0 H50 V400 H0 V0, M75 350 H200 V400 H75 Z"
    />
    <path stroke="black" d="M300,150 Q225,150 225,225 L225,325 Q225,400 300,400 L300,400 300,350 Q275,350 275,325 L275,225 Q275,200 300,200 Z" />
    <!-- <path stroke="black" d="M275,225 Q225,225 225,275 L225,350" /> -->
    <!-- <path d="M 225 300 C 200 275, 275 225, 275 250" stroke="black" fill="transparent"/> -->
</svg>
